<svg width="1160" height="1160" viewBox="0 0 1160 1160" fill="none" xmlns="http://www.w3.org/2000/svg">
<g clip-path="url(#clip0_121_2)">
<rect width="1160" height="1160" rx="580" fill="#0AB5C0"/>
<rect width="1160" height="1160" rx="580" fill="url(#paint0_linear_121_2)"/>
<path d="M15 1159.5C110.409 1030.62 176.343 966.236 363.5 895.5C538.165 987.065 617.727 1007.24 819.5 864C992.963 962.377 1091.34 1028.63 1171.5 1159.5H15Z" fill="#F0DA12"/>
<path d="M15 1159.5C110.409 1030.62 176.343 966.236 363.5 895.5C538.165 987.065 617.727 1007.24 819.5 864C992.963 962.377 1091.34 1028.63 1171.5 1159.5H15Z" fill="url(#paint1_radial_121_2)" fill-opacity="0.2"/>
<ellipse cx="572.5" cy="650.5" rx="332.5" ry="323.5" fill="black"/>
<ellipse cx="573.5" cy="672" rx="273.5" ry="235" fill="#FBA56F"/>
<path d="M432 873C456.311 812.46 458.137 810.648 506.466 731.705C511.36 723.711 517.583 716.422 525.246 711.026C563.764 683.906 587.56 687.436 620.932 711.145C628.494 716.517 634.646 723.592 639.71 731.363C680.381 793.784 736.166 862.832 724.5 868.5C618.5 920 540 922.5 432 873Z" fill="#E9D0BB"/>
<path d="M580 529.5C553.469 474.701 528.627 466.414 450 460C528.078 413.281 588.458 405.129 718.5 470C656.318 470.081 615.818 475.626 580 529.5Z" fill="black"/>
<path d="M1041 658C1041 698.041 1008.76 730.5 969 730.5C929.235 730.5 897 698.041 897 658C897 617.959 942.235 561 982 561C1021.76 561 1041 617.959 1041 658Z" fill="#F1A477"/>
<path d="M101 684C101 724.041 133.235 756.5 173 756.5C212.765 756.5 245 724.041 245 684C245 643.959 199.765 587 160 587C120.235 587 101 643.959 101 684Z" fill="#F1A477"/>
<path d="M404 556.5C425.323 547.086 436.431 549.335 455 566.5" stroke="black" stroke-width="10"/>
<path d="M735 556.5C713.677 547.086 702.569 549.335 684 566.5" stroke="black" stroke-width="10"/>
<path d="M470 643C470 671.167 446.5 654.5 440.5 655.5C440.5 655.5 411 671.167 411 643C411 614.833 424.208 592 440.5 592C456.792 592 470 614.833 470 643Z" fill="#2C0AFC"/>
<path d="M470 643C470 671.167 446.5 654.5 440.5 655.5C440.5 655.5 411 671.167 411 643C411 614.833 424.208 592 440.5 592C456.792 592 470 614.833 470 643Z" fill="black" fill-opacity="0.2"/>
<path d="M470 643C470 671.167 446.5 654.5 440.5 655.5C440.5 655.5 411 671.167 411 643C411 614.833 424.208 592 440.5 592C456.792 592 470 614.833 470 643Z" fill="black" fill-opacity="0.2"/>
<path d="M728 643C728 671.167 714.792 653.5 698.5 653.5C682.208 653.5 669 671.167 669 643C669 614.833 682.208 592 698.5 592C714.792 592 728 614.833 728 643Z" fill="#2C0AFC"/>
<path d="M728 643C728 671.167 714.792 653.5 698.5 653.5C682.208 653.5 669 671.167 669 643C669 614.833 682.208 592 698.5 592C714.792 592 728 614.833 728 643Z" fill="black" fill-opacity="0.2"/>
<path d="M728 643C728 671.167 714.792 653.5 698.5 653.5C682.208 653.5 669 671.167 669 643C669 614.833 682.208 592 698.5 592C714.792 592 728 614.833 728 643Z" fill="black" fill-opacity="0.2"/>
<path d="M551.831 737.097L576 769L598.328 736.008C603.878 727.807 615.781 727.321 621.981 735.042C628.607 743.293 624.615 755.631 614.411 758.437L576 769L537.919 756.68C530.947 754.424 527.367 746.715 530.141 739.933C533.833 730.907 545.942 729.324 551.831 737.097Z" fill="#3C2727"/>
<path d="M576 769L551.831 737.097C545.942 729.324 533.833 730.907 530.141 739.933V739.933C527.367 746.715 530.947 754.424 537.919 756.68L576 769ZM576 769L598.328 736.008C603.878 727.807 615.781 727.321 621.981 735.042V735.042C628.607 743.293 624.615 755.631 614.411 758.437L576 769ZM576 769V837" stroke="black"/>
<path d="M516 825C561.278 857.343 587.391 858.036 635.5 825" stroke="black" stroke-width="20"/>
<ellipse cx="427.12" cy="611.337" rx="9" ry="16" transform="rotate(32.0613 427.12 611.337)" fill="white"/>
<ellipse cx="688.12" cy="611.337" rx="9" ry="16" transform="rotate(32.0613 688.12 611.337)" fill="white"/>
<ellipse cx="401.218" cy="763.416" rx="39" ry="31" transform="rotate(19.8831 401.218 763.416)" fill="#FF7373" fill-opacity="0.5"/>
<ellipse rx="39" ry="31" transform="matrix(-0.940389 0.340102 0.340102 0.940389 730.218 757.416)" fill="#FF7373" fill-opacity="0.5"/>
<path d="M154 659L165.593 652.044C182.133 642.12 203.627 648.663 211.831 666.12L214.858 672.559C218.031 679.31 217.287 687.252 212.917 693.296L209.167 698.482C202.896 707.155 190.003 707.229 183.632 698.629V698.629C179.414 692.934 179.497 685.129 183.835 679.525L188.5 673.5" stroke="black" stroke-width="11"/>
<path d="M991 634.5L979.407 627.544C962.867 617.62 941.373 624.163 933.169 641.62L930.142 648.059C926.969 654.81 927.713 662.752 932.083 668.796L935.833 673.982C942.104 682.655 954.997 682.729 961.368 674.129V674.129C965.586 668.434 965.503 660.629 961.165 655.025L956.5 649" stroke="black" stroke-width="11"/>
<path d="M1014.83 483.924L262.724 303.314L683.642 242.819L1014.83 483.924Z" fill="#C96E3B"/>
<path d="M1014.83 483.924L262.724 303.314L683.642 242.819L1014.83 483.924Z" fill="url(#paint2_radial_121_2)" fill-opacity="0.32"/>
<path d="M1035.68 485.798L256.425 292.207C243.953 300.836 239.94 306.027 258.155 318.293L1026.05 508.735C1047.97 505.374 1046.69 499.307 1035.68 485.798Z" fill="#371414"/>
<path d="M259 1159.5L210.5 967C228.763 955.258 239.658 949.219 261 940L314 1159.5H259Z" fill="black" stroke="black"/>
<path d="M942 1159.5L990.5 967C972.237 955.258 961.342 949.219 940 940L887 1159.5H942Z" fill="black" stroke="black"/>
<circle cx="580.5" cy="1035.5" r="14.5" fill="black"/>
<circle cx="580.5" cy="1090.5" r="14.5" fill="black"/>
<circle cx="580.5" cy="1145.5" r="14.5" fill="black"/>
</g>
<defs>
<linearGradient id="paint0_linear_121_2" x1="274.5" y1="296" x2="580" y2="1160" gradientUnits="userSpaceOnUse">
<stop stop-color="#02BE86"/>
<stop offset="0.953125" stop-color="#128B42" stop-opacity="0.234375"/>
<stop offset="1" stop-color="#008C49" stop-opacity="0"/>
</linearGradient>
<radialGradient id="paint1_radial_121_2" cx="0" cy="0" r="1" gradientUnits="userSpaceOnUse" gradientTransform="translate(131 1011.5) rotate(16.7812) scale(301.332 1179.33)">
<stop offset="0.295726" stop-color="#6A6A6A"/>
<stop offset="1" stop-opacity="0"/>
</radialGradient>
<radialGradient id="paint2_radial_121_2" cx="0" cy="0" r="1" gradientUnits="userSpaceOnUse" gradientTransform="translate(581.402 348.318) rotate(57.0462) scale(187.798 522.843)">
<stop offset="0.303467"/>
<stop offset="1" stop-opacity="0"/>
</radialGradient>
<clipPath id="clip0_121_2">
<rect width="1160" height="1160" rx="580" fill="white"/>
</clipPath>
</defs>
</svg>
